<?xml version="1.0" encoding="UTF-8" standalone="no"?>

<!-- ####################################################################

This file was generates automatically via the 
IconPacks.Browser (MIT-License). 

Visit https://github.com/MahApps/MahApps.Metro.IconPacks and 
https://github.com/MahApps/MahApps.Metro.IconPacks/blob/develop/LICENSE 
for more information.
 
~~~~~~~~~~~~~~~~~~~~~~~~~~~~~~~~~~~~~~~~~~~~~~~~~~~~~~~~~~~~~~~~~~~~~~~~~~
 
Icon-Name: 			ArrowCircleOutlineUp
Iconpack:			ForkAwesome
Iconpack-Homepage: 	https://forkaweso.me/
Iconpack-License:	https://github.com/ForkAwesome/Fork-Awesome/blob/master/LICENSES

#####################################################################-->


<svg xmlns="http://www.w3.org/2000/svg"
     width="48"
     height="48">
    <path d="M1118 660c-5 -12 -17 -20 -30 -20h-192v-352c0 -18 -14 -32 -32 -32h-192c-18 0 -32 14 -32 32v352h-192c-18 0 -32 14 -32 32c0 9 4 17 10 24l319 319c7 6 15 9 23 9s16 -3 23 -9l320 -320c9 -10 12 -23 7 -35zM768 1184c-300 0 -544 -244 -544 -544s244 -544 544 -544 s544 244 544 544s-244 544 -544 544zM1536 640c0 -424 -344 -768 -768 -768s-768 344 -768 768s344 768 768 768s768 -344 768 -768z"
          style="fill:#000000;
                 stroke:none
                 stroke-width:0;
                 stroke-linecap:flat;
                 stroke-linejoin:miter;"
          transform="matrix(0.03125,0,0,-0.03125,0,44)" />
</svg>