<?xml version="1.0" encoding="UTF-8" standalone="no"?>

<!-- ####################################################################

This file was generates automatically via the 
IconPacks.Browser (MIT-License). 

Visit https://github.com/MahApps/MahApps.Metro.IconPacks and 
https://github.com/MahApps/MahApps.Metro.IconPacks/blob/develop/LICENSE 
for more information.
 
~~~~~~~~~~~~~~~~~~~~~~~~~~~~~~~~~~~~~~~~~~~~~~~~~~~~~~~~~~~~~~~~~~~~~~~~~~
 
Icon-Name: 			TrashOutline
Iconpack:			ForkAwesome
Iconpack-Homepage: 	https://forkaweso.me/
Iconpack-License:	https://github.com/ForkAwesome/Fork-Awesome/blob/master/LICENSES

#####################################################################-->


<svg xmlns="http://www.w3.org/2000/svg"
     width="48"
     height="48">
    <path d="M512 800v-576c0 -18 -14 -32 -32 -32h-64c-18 0 -32 14 -32 32v576c0 18 14 32 32 32h64c18 0 32 -14 32 -32zM768 800v-576c0 -18 -14 -32 -32 -32h-64c-18 0 -32 14 -32 32v576c0 18 14 32 32 32h64c18 0 32 -14 32 -32zM1024 800v-576c0 -18 -14 -32 -32 -32h-64 c-18 0 -32 14 -32 32v576c0 18 14 32 32 32h64c18 0 32 -14 32 -32zM1152 76v948h-896v-948c0 -48 27 -76 32 -76h832c5 0 32 28 32 76zM480 1152h448l-48 117c-3 4 -12 10 -17 11h-317c-6 -1 -14 -7 -17 -11zM1408 1120v-64c0 -18 -14 -32 -32 -32h-96v-948 c0 -110 -72 -204 -160 -204h-832c-88 0 -160 90 -160 200v952h-96c-18 0 -32 14 -32 32v64c0 18 14 32 32 32h309l70 167c20 49 80 89 133 89h320c53 0 113 -40 133 -89l70 -167h309c18 0 32 -14 32 -32z"
          style="fill:#000000;
                 stroke:none
                 stroke-width:0;
                 stroke-linecap:flat;
                 stroke-linejoin:miter;"
          transform="matrix(0.03125,0,0,-0.03125,2,44)" />
</svg>