<?xml version="1.0" encoding="UTF-8" standalone="no"?>

<!-- ####################################################################

This file was generates automatically via the 
IconPacks.Browser (MIT-License). 

Visit https://github.com/MahApps/MahApps.Metro.IconPacks and 
https://github.com/MahApps/MahApps.Metro.IconPacks/blob/develop/LICENSE 
for more information.
 
~~~~~~~~~~~~~~~~~~~~~~~~~~~~~~~~~~~~~~~~~~~~~~~~~~~~~~~~~~~~~~~~~~~~~~~~~~
 
Icon-Name: 			Clone
Iconpack:			ForkAwesome
Iconpack-Homepage: 	https://forkaweso.me/
Iconpack-License:	https://github.com/ForkAwesome/Fork-Awesome/blob/master/LICENSES

#####################################################################-->


<svg xmlns="http://www.w3.org/2000/svg"
     width="48"
     height="48">
    <path d="M1664 -96v1088c0 17 -15 32 -32 32h-1088c-17 0 -32 -15 -32 -32v-1088c0 -17 15 -32 32 -32h1088c17 0 32 15 32 32zM1792 992v-1088c0 -88 -72 -160 -160 -160h-1088c-88 0 -160 72 -160 160v1088c0 88 72 160 160 160h1088c88 0 160 -72 160 -160zM1408 1376v-160 h-128v160c0 17 -15 32 -32 32h-1088c-17 0 -32 -15 -32 -32v-1088c0 -17 15 -32 32 -32h160v-128h-160c-88 0 -160 72 -160 160v1088c0 88 72 160 160 160h1088c88 0 160 -72 160 -160z"
          style="fill:#000000;
                 stroke:none
                 stroke-width:0;
                 stroke-linecap:flat;
                 stroke-linejoin:miter;"
          transform="matrix(0.026785714285714284,0,0,-0.026785714285714284,0,41.14285714285714)" />
</svg>