<?xml version="1.0" encoding="UTF-8" standalone="no"?>

<!-- ####################################################################

This file was generates automatically via the 
IconPacks.Browser (MIT-License). 

Visit https://github.com/MahApps/MahApps.Metro.IconPacks and 
https://github.com/MahApps/MahApps.Metro.IconPacks/blob/develop/LICENSE 
for more information.
 
~~~~~~~~~~~~~~~~~~~~~~~~~~~~~~~~~~~~~~~~~~~~~~~~~~~~~~~~~~~~~~~~~~~~~~~~~~
 
Icon-Name: 			ClockThree
Iconpack:			Unicons
Iconpack-Homepage: 	https://iconscout.com/unicons
Iconpack-License:	https://github.com/Iconscout/unicons/blob/master/LICENSE

#####################################################################-->


<svg xmlns="http://www.w3.org/2000/svg"
     >
    <path d="M15,11H13V7a1,1,0,0,0-2,0v5a1,1,0,0,0,1,1h3a1,1,0,0,0,0-2ZM12,2A10,10,0,1,0,22,12,10.01114,10.01114,0,0,0,12,2Zm0,18a8,8,0,1,1,8-8A8.00917,8.00917,0,0,1,12,20Z"
          style="fill:#000000;
                 stroke:none
                 stroke-width:0;
                 stroke-linecap:flat;
                 stroke-linejoin:miter;"
          transform="matrix(2.3999649529806684,0,0,2.3999649529806684,-4.799228965574708,-4.79992961986322)" />
</svg>