<?xml version="1.0" encoding="UTF-8" standalone="no"?>

<!-- ####################################################################

This file was generates automatically via the 
IconPacks.Browser (MIT-License). 

Visit https://github.com/MahApps/MahApps.Metro.IconPacks and 
https://github.com/MahApps/MahApps.Metro.IconPacks/blob/develop/LICENSE 
for more information.
 
~~~~~~~~~~~~~~~~~~~~~~~~~~~~~~~~~~~~~~~~~~~~~~~~~~~~~~~~~~~~~~~~~~~~~~~~~~
 
Icon-Name: 			Edit
Iconpack:			Unicons
Iconpack-Homepage: 	https://iconscout.com/unicons
Iconpack-License:	https://github.com/Iconscout/unicons/blob/master/LICENSE

#####################################################################-->


<svg xmlns="http://www.w3.org/2000/svg"
     width="48"
     height="48">
    <path d="M21,12a1,1,0,0,0-1,1v6a1,1,0,0,1-1,1H5a1,1,0,0,1-1-1V5A1,1,0,0,1,5,4h6a1,1,0,0,0,0-2H5A3,3,0,0,0,2,5V19a3,3,0,0,0,3,3H19a3,3,0,0,0,3-3V13A1,1,0,0,0,21,12ZM6,12.76V17a1,1,0,0,0,1,1h4.24a1,1,0,0,0,.71-.29l6.92-6.93h0L21.71,8a1,1,0,0,0,0-1.42L17.47,2.29a1,1,0,0,0-1.42,0L13.23,5.12h0L6.29,12.05A1,1,0,0,0,6,12.76ZM16.76,4.41l2.83,2.83L18.17,8.66,15.34,5.83ZM8,13.17l5.93-5.93,2.83,2.83L10.83,16H8Z"
          style="fill:#000000;
                 stroke:none
                 stroke-width:0;
                 stroke-linecap:flat;
                 stroke-linejoin:miter;"
          transform="matrix(2.3993044008847533,0,0,2.3993044008847533,-4.7986088017695065,-4.784696819464572)" />
</svg>